{
	"asset":{
		"generator":"Khronos glTF Blender I/O v4.0.44",
		"version":"2.0"
	},
	"scene":0,
	"scenes":[
		{
			"name":"Scene",
			"nodes":[
				0
			]
		}
	],
	"nodes":[
		{
			"mesh":0,
			"name":"Cylinder",
			"scale":[
				1,
				1.204081654548645,
				1
			],
			"translation":[
				0.10209697484970093,
				1.3413584232330322,
				0.22158896923065186
			]
		}
	],
	"materials":[
		{
			"doubleSided":true,
			"name":"wood",
			"pbrMetallicRoughness":{
				"baseColorFactor":[
					0.13136735558509827,
					0.04446089640259743,
					0.0047760591842234135,
					1
				],
				"metallicFactor":0,
				"roughnessFactor":0.3522724509239197
			}
		},
		{
			"doubleSided":true,
			"name":"Metal",
			"pbrMetallicRoughness":{
				"baseColorFactor":[
					0.10306452214717865,
					0.08578798174858093,
					0.004072085022926331,
					1
				],
				"metallicFactor":0.5704545378684998,
				"roughnessFactor":0.13409090042114258
			}
		},
		{
			"alphaMode":"BLEND",
			"doubleSided":true,
			"name":"Water",
			"pbrMetallicRoughness":{
				"baseColorFactor":[
					0.0029429071582853794,
					0.28779318928718567,
					0.8014931678771973,
					0.6499999761581421
				],
				"metallicFactor":0.7454544901847839,
				"roughnessFactor":0.165909081697464
			}
		}
	],
	"meshes":[
		{
			"name":"Cylinder.001",
			"primitives":[
				{
					"attributes":{
						"POSITION":0,
						"NORMAL":1,
						"TEXCOORD_0":2
					},
					"indices":3,
					"material":0
				},
				{
					"attributes":{
						"POSITION":4,
						"NORMAL":5,
						"TEXCOORD_0":6
					},
					"indices":7,
					"material":1
				},
				{
					"attributes":{
						"POSITION":8,
						"NORMAL":9,
						"TEXCOORD_0":10
					},
					"indices":11,
					"material":2
				}
			]
		}
	],
	"accessors":[
		{
			"bufferView":0,
			"componentType":5126,
			"count":379,
			"max":[
				1.4151701927185059,
				1.4700000286102295,
				1.391870141029358
			],
			"min":[
				-1.4151701927185059,
				-1.4700000286102295,
				-1.422965168952942
			],
			"type":"VEC3"
		},
		{
			"bufferView":1,
			"componentType":5126,
			"count":379,
			"type":"VEC3"
		},
		{
			"bufferView":2,
			"componentType":5126,
			"count":379,
			"type":"VEC2"
		},
		{
			"bufferView":3,
			"componentType":5123,
			"count":741,
			"type":"SCALAR"
		},
		{
			"bufferView":4,
			"componentType":5126,
			"count":384,
			"max":[
				1.5447158813476562,
				0.7608680129051208,
				1.5192829370498657
			],
			"min":[
				-1.5447158813476562,
				-1.4700000286102295,
				-1.5532244443893433
			],
			"type":"VEC3"
		},
		{
			"bufferView":5,
			"componentType":5126,
			"count":384,
			"type":"VEC3"
		},
		{
			"bufferView":6,
			"componentType":5126,
			"count":384,
			"type":"VEC2"
		},
		{
			"bufferView":7,
			"componentType":5123,
			"count":642,
			"type":"SCALAR"
		},
		{
			"bufferView":8,
			"componentType":5126,
			"count":15,
			"max":[
				1.1235883235931396,
				1.1900789737701416,
				1.1050890684127808
			],
			"min":[
				-1.1235883235931396,
				1.1900789737701416,
				-1.1297773122787476
			],
			"type":"VEC3"
		},
		{
			"bufferView":9,
			"componentType":5126,
			"count":15,
			"type":"VEC3"
		},
		{
			"bufferView":10,
			"componentType":5126,
			"count":15,
			"type":"VEC2"
		},
		{
			"bufferView":11,
			"componentType":5123,
			"count":39,
			"type":"SCALAR"
		}
	],
	"bufferViews":[
		{
			"buffer":0,
			"byteLength":4548,
			"byteOffset":0,
			"target":34962
		},
		{
			"buffer":0,
			"byteLength":4548,
			"byteOffset":4548,
			"target":34962
		},
		{
			"buffer":0,
			"byteLength":3032,
			"byteOffset":9096,
			"target":34962
		},
		{
			"buffer":0,
			"byteLength":1482,
			"byteOffset":12128,
			"target":34963
		},
		{
			"buffer":0,
			"byteLength":4608,
			"byteOffset":13612,
			"target":34962
		},
		{
			"buffer":0,
			"byteLength":4608,
			"byteOffset":18220,
			"target":34962
		},
		{
			"buffer":0,
			"byteLength":3072,
			"byteOffset":22828,
			"target":34962
		},
		{
			"buffer":0,
			"byteLength":1284,
			"byteOffset":25900,
			"target":34963
		},
		{
			"buffer":0,
			"byteLength":180,
			"byteOffset":27184,
			"target":34962
		},
		{
			"buffer":0,
			"byteLength":180,
			"byteOffset":27364,
			"target":34962
		},
		{
			"buffer":0,
			"byteLength":120,
			"byteOffset":27544,
			"target":34962
		},
		{
			"buffer":0,
			"byteLength":78,
			"byteOffset":27664,
			"target":34963
		}
	],
	"buffers":[
		{
			"byteLength":27744,
			"uri":"barrel.bin"
		}
	]
}
